<mxfile host="app.diagrams.net" modified="2022-01-26T08:00:44.412Z" agent="5.0 (X11)" etag="5_NlqIRqfseWYYmtwoXr" version="16.4.6" type="github">
  <diagram id="26PaZwHfb4GwZ9CBuKKn" name="Page-1">
    <mxGraphModel dx="1497" dy="846" grid="1" gridSize="10" guides="1" tooltips="1" connect="1" arrows="1" fold="1" page="1" pageScale="1" pageWidth="827" pageHeight="1169" math="0" shadow="0">
      <root>
        <mxCell id="0" />
        <mxCell id="1" parent="0" />
        <mxCell id="3v_9FHs3D7X42sRfUWYX-2" value="&lt;font style=&quot;font-size: 14px&quot;&gt;UE&lt;/font&gt;" style="rounded=0;whiteSpace=wrap;html=1;" parent="1" vertex="1">
          <mxGeometry x="470" y="240" width="60" height="30" as="geometry" />
        </mxCell>
        <mxCell id="3v_9FHs3D7X42sRfUWYX-3" value="&lt;font style=&quot;font-size: 14px&quot;&gt;UE&lt;/font&gt;" style="rounded=0;whiteSpace=wrap;html=1;" parent="1" vertex="1">
          <mxGeometry x="550" y="240" width="60" height="30" as="geometry" />
        </mxCell>
        <mxCell id="3v_9FHs3D7X42sRfUWYX-4" value="&lt;font style=&quot;font-size: 14px&quot;&gt;UE&lt;/font&gt;" style="rounded=0;whiteSpace=wrap;html=1;" parent="1" vertex="1">
          <mxGeometry x="470" y="280" width="60" height="30" as="geometry" />
        </mxCell>
        <mxCell id="3v_9FHs3D7X42sRfUWYX-5" value="&lt;font style=&quot;font-size: 14px&quot;&gt;UE&lt;/font&gt;" style="rounded=0;whiteSpace=wrap;html=1;" parent="1" vertex="1">
          <mxGeometry x="550" y="280" width="60" height="30" as="geometry" />
        </mxCell>
        <mxCell id="3v_9FHs3D7X42sRfUWYX-6" value="&lt;font style=&quot;font-size: 14px&quot;&gt;UE&lt;/font&gt;" style="rounded=0;whiteSpace=wrap;html=1;" parent="1" vertex="1">
          <mxGeometry x="470" y="320" width="60" height="30" as="geometry" />
        </mxCell>
        <mxCell id="3v_9FHs3D7X42sRfUWYX-7" value="&lt;font style=&quot;font-size: 14px&quot;&gt;UE&lt;/font&gt;" style="rounded=0;whiteSpace=wrap;html=1;" parent="1" vertex="1">
          <mxGeometry x="550" y="320" width="60" height="30" as="geometry" />
        </mxCell>
        <mxCell id="3v_9FHs3D7X42sRfUWYX-8" value="gNodeB" style="rounded=1;whiteSpace=wrap;html=1;fontSize=14;" parent="1" vertex="1">
          <mxGeometry x="330" y="80" width="120" height="120" as="geometry" />
        </mxCell>
        <mxCell id="3v_9FHs3D7X42sRfUWYX-11" value="" style="endArrow=none;dashed=1;html=1;rounded=0;fontSize=14;" parent="1" edge="1">
          <mxGeometry width="50" height="50" relative="1" as="geometry">
            <mxPoint x="440" y="360" as="sourcePoint" />
            <mxPoint x="440" y="220" as="targetPoint" />
          </mxGeometry>
        </mxCell>
        <mxCell id="3v_9FHs3D7X42sRfUWYX-12" value="" style="endArrow=none;dashed=1;html=1;rounded=0;fontSize=14;" parent="1" edge="1">
          <mxGeometry width="50" height="50" relative="1" as="geometry">
            <mxPoint x="640" y="360" as="sourcePoint" />
            <mxPoint x="440" y="360" as="targetPoint" />
          </mxGeometry>
        </mxCell>
        <mxCell id="3v_9FHs3D7X42sRfUWYX-13" value="" style="endArrow=none;dashed=1;html=1;rounded=0;fontSize=14;" parent="1" edge="1">
          <mxGeometry width="50" height="50" relative="1" as="geometry">
            <mxPoint x="440" y="220" as="sourcePoint" />
            <mxPoint x="640" y="220" as="targetPoint" />
          </mxGeometry>
        </mxCell>
        <mxCell id="3v_9FHs3D7X42sRfUWYX-14" value="" style="endArrow=none;dashed=1;html=1;rounded=0;fontSize=14;" parent="1" edge="1">
          <mxGeometry width="50" height="50" relative="1" as="geometry">
            <mxPoint x="640" y="220" as="sourcePoint" />
            <mxPoint x="640" y="360" as="targetPoint" />
          </mxGeometry>
        </mxCell>
        <mxCell id="3v_9FHs3D7X42sRfUWYX-17" value="Edge Server" style="rounded=1;whiteSpace=wrap;html=1;fontSize=14;" parent="1" vertex="1">
          <mxGeometry x="190" y="220" width="120" height="40" as="geometry" />
        </mxCell>
        <mxCell id="3v_9FHs3D7X42sRfUWYX-20" value="UE" style="rounded=0;whiteSpace=wrap;html=1;fontSize=14;verticalAlign=top;" parent="1" vertex="1">
          <mxGeometry x="490" y="400" width="120" height="220" as="geometry" />
        </mxCell>
        <mxCell id="3v_9FHs3D7X42sRfUWYX-22" value="VNT Servie" style="rounded=0;whiteSpace=wrap;html=1;fontSize=14;" parent="1" vertex="1">
          <mxGeometry x="500" y="430" width="100" height="20" as="geometry" />
        </mxCell>
        <mxCell id="3v_9FHs3D7X42sRfUWYX-23" value="VNT Servie" style="rounded=0;whiteSpace=wrap;html=1;fontSize=14;" parent="1" vertex="1">
          <mxGeometry x="500" y="460" width="100" height="20" as="geometry" />
        </mxCell>
        <mxCell id="3v_9FHs3D7X42sRfUWYX-24" value="Edge Server" style="rounded=0;whiteSpace=wrap;html=1;fontSize=14;verticalAlign=top;" parent="1" vertex="1">
          <mxGeometry x="190" y="400" width="120" height="260" as="geometry" />
        </mxCell>
        <mxCell id="3v_9FHs3D7X42sRfUWYX-26" value="VNT Servie" style="rounded=0;whiteSpace=wrap;html=1;fontSize=14;" parent="1" vertex="1">
          <mxGeometry x="200" y="430" width="100" height="20" as="geometry" />
        </mxCell>
        <mxCell id="3v_9FHs3D7X42sRfUWYX-28" value="VNT Servie" style="rounded=0;whiteSpace=wrap;html=1;fontSize=14;" parent="1" vertex="1">
          <mxGeometry x="200" y="460" width="100" height="20" as="geometry" />
        </mxCell>
        <mxCell id="3v_9FHs3D7X42sRfUWYX-29" value="VNT Schedule" style="rounded=1;whiteSpace=wrap;html=1;fontSize=14;strokeColor=#CC0000;" parent="1" vertex="1">
          <mxGeometry x="200" y="490" width="100" height="30" as="geometry" />
        </mxCell>
        <mxCell id="3v_9FHs3D7X42sRfUWYX-30" value="Task Schedule" style="rounded=1;whiteSpace=wrap;html=1;fontSize=14;strokeColor=#CC0000;" parent="1" vertex="1">
          <mxGeometry x="200" y="531" width="100" height="35" as="geometry" />
        </mxCell>
        <mxCell id="3v_9FHs3D7X42sRfUWYX-31" value="Block Chain model" style="rounded=0;whiteSpace=wrap;html=1;fontSize=14;" parent="1" vertex="1">
          <mxGeometry x="200" y="585" width="100" height="60" as="geometry" />
        </mxCell>
        <mxCell id="3v_9FHs3D7X42sRfUWYX-32" value="Block Chain model" style="rounded=0;whiteSpace=wrap;html=1;fontSize=14;" parent="1" vertex="1">
          <mxGeometry x="500" y="542" width="100" height="60" as="geometry" />
        </mxCell>
        <mxCell id="3v_9FHs3D7X42sRfUWYX-35" value="" style="endArrow=classic;html=1;rounded=0;fontSize=14;exitX=0.5;exitY=1;exitDx=0;exitDy=0;entryX=0.5;entryY=0;entryDx=0;entryDy=0;strokeColor=#FF3908;" parent="1" source="3v_9FHs3D7X42sRfUWYX-17" target="3v_9FHs3D7X42sRfUWYX-24" edge="1">
          <mxGeometry width="50" height="50" relative="1" as="geometry">
            <mxPoint x="390" y="440" as="sourcePoint" />
            <mxPoint x="440" y="390" as="targetPoint" />
          </mxGeometry>
        </mxCell>
        <mxCell id="3v_9FHs3D7X42sRfUWYX-36" value="" style="endArrow=classic;html=1;rounded=0;fontSize=14;strokeColor=#B3FF66;entryX=0.5;entryY=0;entryDx=0;entryDy=0;" parent="1" target="3v_9FHs3D7X42sRfUWYX-20" edge="1">
          <mxGeometry width="50" height="50" relative="1" as="geometry">
            <mxPoint x="550" y="360" as="sourcePoint" />
            <mxPoint x="440" y="390" as="targetPoint" />
          </mxGeometry>
        </mxCell>
        <mxCell id="0CBWuQpfn7p6sc8tX7UC-2" value="&lt;div&gt;efficacy manager&lt;br&gt;&lt;/div&gt;" style="rounded=1;whiteSpace=wrap;html=1;fontSize=14;strokeColor=#FF0000;" vertex="1" parent="1">
          <mxGeometry x="500" y="490" width="100" height="40" as="geometry" />
        </mxCell>
        <mxCell id="0CBWuQpfn7p6sc8tX7UC-13" value="" style="endArrow=classic;html=1;rounded=0;entryX=0.75;entryY=0;entryDx=0;entryDy=0;" edge="1" parent="1" target="3v_9FHs3D7X42sRfUWYX-17">
          <mxGeometry width="50" height="50" relative="1" as="geometry">
            <mxPoint x="330" y="150" as="sourcePoint" />
            <mxPoint x="520" y="390" as="targetPoint" />
            <Array as="points">
              <mxPoint x="280" y="150" />
            </Array>
          </mxGeometry>
        </mxCell>
        <mxCell id="0CBWuQpfn7p6sc8tX7UC-14" value="" style="endArrow=classic;html=1;rounded=0;entryX=-0.009;entryY=0.406;entryDx=0;entryDy=0;entryPerimeter=0;" edge="1" parent="1" target="3v_9FHs3D7X42sRfUWYX-8">
          <mxGeometry width="50" height="50" relative="1" as="geometry">
            <mxPoint x="225" y="220" as="sourcePoint" />
            <mxPoint x="275" y="170" as="targetPoint" />
            <Array as="points">
              <mxPoint x="225" y="130" />
              <mxPoint x="280" y="130" />
            </Array>
          </mxGeometry>
        </mxCell>
        <mxCell id="0CBWuQpfn7p6sc8tX7UC-15" value="" style="endArrow=classic;html=1;rounded=0;exitX=1.008;exitY=0.617;exitDx=0;exitDy=0;exitPerimeter=0;strokeColor=#00FF00;" edge="1" parent="1" source="3v_9FHs3D7X42sRfUWYX-8">
          <mxGeometry width="50" height="50" relative="1" as="geometry">
            <mxPoint x="470" y="440" as="sourcePoint" />
            <mxPoint x="520" y="220" as="targetPoint" />
            <Array as="points">
              <mxPoint x="520" y="154" />
            </Array>
          </mxGeometry>
        </mxCell>
        <mxCell id="0CBWuQpfn7p6sc8tX7UC-16" value="" style="endArrow=classic;html=1;rounded=0;strokeColor=#00FF00;" edge="1" parent="1">
          <mxGeometry width="50" height="50" relative="1" as="geometry">
            <mxPoint x="570" y="220" as="sourcePoint" />
            <mxPoint x="450" y="130" as="targetPoint" />
            <Array as="points">
              <mxPoint x="570" y="130" />
              <mxPoint x="520" y="130" />
            </Array>
          </mxGeometry>
        </mxCell>
      </root>
    </mxGraphModel>
  </diagram>
</mxfile>
